<svg width="222" height="121" viewBox="0 0 222 121" fill="none" xmlns="http://www.w3.org/2000/svg">
<path d="M0 11C0 4.92486 4.92487 0 11 0H211C217.075 0 222 4.92487 222 11V110C222 116.075 217.075 121 211 121H11C4.92487 121 0 116.075 0 110V11Z" fill="#111111"/>
<g clip-path="url(#clip0_28_127)">
<path d="M87.4945 14.5C88.7637 15.9969 87.9854 17.1742 86.9916 18.4291C85.4799 20.3413 84.1118 22.3641 82.6151 24.2883C82.0074 25.0682 82.1571 25.349 82.9983 25.7853C86.8359 27.7812 88.9672 30.9483 88.9762 35.3077C89.0062 52.8705 89.0181 70.4333 88.9523 87.9961C88.9283 94.5904 83.6598 98.5016 78.1219 98.4478C60.7718 98.2834 43.4187 98.3701 26.0685 98.3581C25.7213 98.3581 25.3711 98.3581 25.0059 98.3581C25.6644 96.2128 26.5535 95.5435 28.6758 95.5435C45.08 95.5346 61.4842 95.5316 77.8884 95.5077C82.1302 95.5017 85.1027 93.2399 85.8301 89.511C85.9618 88.8327 85.9858 88.1276 85.9828 87.4344C85.9828 70.2182 85.9588 53.0049 85.9618 35.7887C85.9618 32.4363 84.5878 29.9623 81.5434 28.4535C80.5526 27.9634 79.8491 28.0501 79.1337 29.0301C70.2431 41.146 61.3136 53.235 52.3961 65.33C49.3397 69.4742 46.2864 73.6214 43.2331 77.7656C43.2031 77.8044 43.1792 77.8493 43.1493 77.8881C42.5176 78.6739 41.7962 79.385 40.7814 78.5664C39.8475 77.8134 40.3204 76.9798 40.8862 76.2059C43.8587 72.1514 46.8192 68.0908 49.7948 64.0392C56.3834 55.0726 62.972 46.1059 69.5786 37.1512C75.0446 29.7442 80.5346 22.3552 86.0157 14.9601C86.1414 14.7898 86.2432 14.6464 86.0037 14.5H87.5004L87.4945 14.5Z" fill="#F8D867"/>
<path d="M7 107.364C7.85912 107.746 7.95192 106.874 8.22133 106.512C13.7802 99.0095 19.3031 91.477 24.8321 83.9505C29.1457 78.0793 33.4652 72.2111 37.7728 66.3309C41.8589 60.7555 45.927 55.1682 50.0131 49.5898C50.4801 48.9534 50.98 48.3349 51.5098 47.7463C52.0786 47.1158 52.7641 47.1487 53.3718 47.6626C53.9495 48.1496 53.9914 48.8578 53.5723 49.4165C50.6896 53.2589 47.8937 57.1641 45.02 61.0125C42.287 64.6727 39.6138 68.3836 36.9107 72.0677C28.2267 83.8997 19.4947 95.6929 10.8197 107.531C9.81984 108.896 8.9248 110.121 7.00299 109.153V108.556C7.38915 108.356 7.37418 108.158 7.00299 107.958V107.361L7 107.364Z" fill="#F8D867"/>
<path d="M7 107.961C7.37119 108.161 7.38616 108.359 7 108.559V107.961Z" fill="#050504"/>
<path d="M71.2966 25.1249C70.3627 26.7832 69.4586 27.9844 67.0609 27.9634C51.0608 27.823 35.0607 27.8828 19.0577 27.8828C14.3968 27.8828 11.3944 30.8587 11.3884 35.5228C11.3645 52.9811 11.3645 70.4393 11.3375 87.9005C11.3345 90.1116 12.0769 92.0059 13.6335 93.5327C14.2591 94.1482 14.4627 94.7249 13.7592 95.2089C13.1426 95.6332 12.487 96.5206 11.5171 95.5585C9.34087 93.3983 8.46079 90.8257 8.46678 87.775C8.49372 70.2182 8.44882 52.6584 8.42188 35.1015C8.42188 34.0498 8.52964 33.0219 8.84395 32.015C9.70907 29.2632 11.4243 27.1687 14.0047 25.9436C15.241 25.358 16.609 24.8919 18.0519 24.8919C35.4499 24.8919 52.8449 24.8859 70.2429 24.8919C70.5692 24.8919 70.9344 24.7724 71.2936 25.1309L71.2966 25.1249Z" fill="#F8D867"/>
</g>
<path d="M104.394 42.252C104.794 42.412 105.13 42.62 105.418 42.876C105.706 43.132 105.898 43.42 106.01 43.74C106.106 44.06 106.17 44.364 106.17 44.652C106.17 45.644 105.802 46.428 105.066 46.972C104.33 47.516 103.21 47.788 101.706 47.788C100.458 47.788 99.3218 47.692 98.3138 47.5V37.404C99.3378 37.196 100.458 37.084 101.642 37.084C104.362 37.084 105.722 38.076 105.722 40.028C105.722 41.116 105.274 41.868 104.394 42.252ZM101.818 39.02C101.466 39.02 101.098 39.036 100.698 39.068V41.388H101.914C102.426 41.388 102.794 41.276 103.034 41.068C103.258 40.86 103.386 40.556 103.386 40.156C103.386 39.804 103.242 39.516 102.986 39.324C102.714 39.116 102.33 39.02 101.818 39.02ZM101.93 45.884C103.146 45.884 103.738 45.436 103.738 44.54C103.738 44.124 103.594 43.82 103.306 43.596C103.018 43.372 102.586 43.26 102.026 43.26H100.682V45.836C101.098 45.868 101.514 45.884 101.93 45.884ZM113.72 43.436L116.104 47.388C115.64 47.516 114.968 47.58 114.088 47.58L113.48 47.564L111.368 43.964H111.256L110.088 43.948V47.5C109.784 47.564 109.384 47.596 108.904 47.596C108.44 47.596 108.04 47.564 107.688 47.5V37.388C108.168 37.292 108.728 37.212 109.368 37.148C110.024 37.084 110.616 37.052 111.144 37.052C111.704 37.052 112.248 37.116 112.792 37.212C113.336 37.308 113.8 37.484 114.216 37.74C114.616 37.996 114.936 38.348 115.176 38.764C115.416 39.196 115.544 39.724 115.544 40.348C115.544 40.7 115.48 41.068 115.384 41.468C115.272 41.868 115.064 42.236 114.776 42.588C114.488 42.94 114.136 43.228 113.72 43.436ZM110.088 39.116V41.98L111.352 41.996C111.944 41.996 112.376 41.868 112.664 41.58C112.952 41.292 113.096 40.94 113.096 40.492C113.096 40.06 112.952 39.708 112.648 39.452C112.36 39.196 111.912 39.068 111.336 39.068C110.92 39.068 110.504 39.084 110.088 39.116ZM122.388 37.228L126.196 47.388C125.62 47.516 125.108 47.58 124.66 47.58C124.372 47.58 124.068 47.564 123.78 47.5L123.044 45.468H119.236L118.5 47.5C118.18 47.548 117.828 47.564 117.412 47.564C116.884 47.564 116.468 47.516 116.148 47.388L119.988 37.228C120.308 37.164 120.708 37.132 121.22 37.132C121.668 37.132 122.068 37.164 122.388 37.228ZM119.972 43.484H122.308L121.444 41.116L121.124 40.124L120.836 41.116L119.972 43.484ZM134.651 45.372C134.715 45.724 134.763 46.076 134.763 46.428C134.763 46.812 134.715 47.164 134.651 47.5H126.427C126.363 47.324 126.331 47.116 126.331 46.86C126.331 46.652 126.379 46.428 126.475 46.172C126.571 45.916 126.683 45.692 126.843 45.484L130.987 39.788L131.307 39.34L126.443 39.356C126.363 39.036 126.331 38.684 126.331 38.3C126.331 37.916 126.363 37.564 126.443 37.228H134.523C134.587 37.404 134.619 37.628 134.619 37.884C134.619 38.092 134.571 38.316 134.475 38.556C134.379 38.812 134.251 39.036 134.107 39.26L130.059 44.828L129.611 45.372H134.651ZM137.452 47.596C137.052 47.596 136.652 47.564 136.236 47.5V37.244C136.54 37.18 136.924 37.148 137.404 37.148C137.868 37.148 138.268 37.18 138.62 37.244V47.5C138.236 47.564 137.836 47.596 137.452 47.596ZM147.36 45.356C147.424 45.708 147.472 46.06 147.472 46.428C147.472 46.812 147.424 47.18 147.36 47.5H140.752V37.228C141.216 37.164 141.616 37.116 141.936 37.116C142.256 37.116 142.656 37.164 143.136 37.228V45.356H147.36ZM155.81 37.228L159.618 47.388C159.042 47.516 158.53 47.58 158.082 47.58C157.794 47.58 157.49 47.564 157.202 47.5L156.466 45.468H152.658L151.922 47.5C151.602 47.548 151.25 47.564 150.834 47.564C150.306 47.564 149.89 47.516 149.57 47.388L153.41 37.228C153.73 37.164 154.13 37.132 154.642 37.132C155.09 37.132 155.49 37.164 155.81 37.228ZM153.394 43.484H155.73L154.866 41.116L154.546 40.124L154.258 41.116L153.394 43.484ZM164.001 37.02C164.913 37.02 165.745 37.148 166.481 37.404C167.217 37.66 167.841 38.012 168.353 38.46C168.849 38.924 169.233 39.484 169.489 40.124C169.745 40.78 169.889 41.484 169.889 42.252C169.889 43.084 169.745 43.836 169.473 44.508C169.185 45.18 168.801 45.756 168.289 46.236C167.777 46.716 167.153 47.068 166.433 47.324C165.697 47.58 164.913 47.692 164.049 47.692C162.833 47.692 161.713 47.628 160.689 47.484V37.276C161.665 37.116 162.769 37.02 164.001 37.02ZM164.177 45.468C165.137 45.468 165.905 45.18 166.449 44.604C166.993 44.028 167.265 43.26 167.265 42.284C167.265 41.356 166.977 40.62 166.433 40.076C165.889 39.532 165.105 39.26 164.113 39.26C163.665 39.26 163.329 39.276 163.089 39.292V45.436L164.177 45.468ZM177.978 37.132C178.266 37.132 178.618 37.164 179.002 37.196C179.402 37.228 179.658 37.26 179.786 37.324C179.05 40.748 177.834 44.124 176.17 47.484C175.85 47.548 175.45 47.58 174.954 47.58C174.474 47.58 174.042 47.548 173.658 47.484C172.058 44.22 170.842 40.844 170.026 37.324C170.602 37.196 171.194 37.132 171.834 37.132C172.138 37.132 172.41 37.148 172.634 37.18C172.922 38.556 173.29 39.948 173.706 41.356C174.138 42.748 174.586 44.044 175.05 45.244C176.042 42.588 176.794 39.884 177.322 37.164C177.45 37.148 177.658 37.132 177.978 37.132ZM182.218 47.596C181.818 47.596 181.418 47.564 181.002 47.5V37.244C181.306 37.18 181.69 37.148 182.17 37.148C182.634 37.148 183.034 37.18 183.386 37.244V47.5C183.002 47.564 182.602 47.596 182.218 47.596ZM188.845 47.756C188.333 47.756 187.821 47.708 187.309 47.612C186.797 47.516 186.333 47.372 185.901 47.164C185.469 46.972 185.117 46.748 184.829 46.492C184.877 46.092 185.005 45.724 185.197 45.372C185.389 45.036 185.645 44.78 185.933 44.604C186.285 44.892 186.733 45.116 187.245 45.308C187.773 45.484 188.317 45.58 188.877 45.58C189.421 45.58 189.837 45.484 190.093 45.324C190.349 45.164 190.477 44.94 190.477 44.652C190.477 44.364 190.365 44.14 190.109 43.964C189.853 43.772 189.293 43.58 188.413 43.356C187.261 43.068 186.429 42.684 185.917 42.188C185.421 41.692 185.165 41.036 185.149 40.204C185.149 39.852 185.213 39.484 185.341 39.116C185.469 38.732 185.693 38.364 186.045 38.012C186.397 37.66 186.861 37.388 187.405 37.228C187.949 37.052 188.509 36.972 189.085 36.972C189.693 36.972 190.333 37.052 190.973 37.212C191.613 37.372 192.173 37.644 192.653 38.028C192.637 38.396 192.525 38.764 192.317 39.132C192.125 39.5 191.869 39.772 191.549 39.964C191.229 39.724 190.829 39.532 190.381 39.388C189.933 39.228 189.453 39.164 188.925 39.164C188.477 39.164 188.125 39.228 187.869 39.388C187.613 39.548 187.469 39.74 187.469 39.996C187.469 40.124 187.501 40.252 187.565 40.38C187.629 40.508 187.805 40.62 188.093 40.748C188.381 40.876 188.861 41.02 189.533 41.18C190.717 41.468 191.565 41.884 192.045 42.396C192.541 42.908 192.797 43.548 192.813 44.316C192.813 44.988 192.701 45.564 192.445 46.012C192.189 46.46 191.901 46.796 191.565 47.02C191.229 47.244 190.845 47.436 190.413 47.564C189.965 47.692 189.453 47.756 188.845 47.756ZM199.146 47.788C198.378 47.788 197.658 47.66 197.002 47.404C196.33 47.148 195.754 46.764 195.274 46.284C194.794 45.804 194.41 45.228 194.154 44.556C193.882 43.884 193.754 43.148 193.754 42.348C193.754 41.58 193.882 40.844 194.154 40.172C194.41 39.5 194.794 38.908 195.274 38.428C195.754 37.948 196.33 37.564 197.002 37.308C197.658 37.036 198.378 36.908 199.146 36.908C199.914 36.908 200.618 37.036 201.29 37.292C201.962 37.548 202.538 37.932 203.018 38.412C203.498 38.892 203.866 39.468 204.138 40.14C204.394 40.812 204.538 41.564 204.538 42.364C204.538 43.132 204.394 43.852 204.138 44.524C203.866 45.196 203.482 45.788 203.002 46.268C202.522 46.748 201.946 47.132 201.274 47.388C200.602 47.66 199.898 47.788 199.146 47.788ZM199.146 45.532C199.978 45.532 200.666 45.244 201.178 44.668C201.69 44.092 201.946 43.308 201.946 42.348C201.946 41.372 201.69 40.588 201.178 40.012C200.666 39.436 199.978 39.148 199.146 39.148C198.298 39.148 197.626 39.436 197.114 40.012C196.602 40.588 196.346 41.372 196.346 42.348C196.346 43.308 196.602 44.092 197.114 44.668C197.626 45.244 198.298 45.532 199.146 45.532ZM212.111 43.436L214.495 47.388C214.031 47.516 213.359 47.58 212.479 47.58L211.871 47.564L209.759 43.964H209.647L208.479 43.948V47.5C208.175 47.564 207.775 47.596 207.295 47.596C206.831 47.596 206.431 47.564 206.079 47.5V37.388C206.559 37.292 207.119 37.212 207.759 37.148C208.415 37.084 209.007 37.052 209.535 37.052C210.095 37.052 210.639 37.116 211.183 37.212C211.727 37.308 212.191 37.484 212.607 37.74C213.007 37.996 213.327 38.348 213.567 38.764C213.807 39.196 213.935 39.724 213.935 40.348C213.935 40.7 213.871 41.068 213.775 41.468C213.663 41.868 213.455 42.236 213.167 42.588C212.879 42.94 212.527 43.228 212.111 43.436ZM208.479 39.116V41.98L209.743 41.996C210.335 41.996 210.767 41.868 211.055 41.58C211.343 41.292 211.487 40.94 211.487 40.492C211.487 40.06 211.343 39.708 211.039 39.452C210.751 39.196 210.303 39.068 209.727 39.068C209.311 39.068 208.895 39.084 208.479 39.116Z" fill="#F8D867"/>
<path d="M103.279 57.228L107.087 67.388C106.511 67.516 105.999 67.58 105.551 67.58C105.263 67.58 104.959 67.564 104.671 67.5L103.935 65.468H100.127L99.3907 67.5C99.0707 67.548 98.7187 67.564 98.3027 67.564C97.7747 67.564 97.3587 67.516 97.0387 67.388L100.879 57.228C101.199 57.164 101.599 57.132 102.111 57.132C102.559 57.132 102.959 57.164 103.279 57.228ZM100.863 63.484H103.199L102.335 61.116L102.015 60.124L101.727 61.116L100.863 63.484ZM120.273 57.132C120.561 57.132 120.913 57.148 121.297 57.18C121.681 57.212 121.953 57.26 122.081 57.308C121.649 59.26 121.201 61.052 120.721 62.716C120.241 64.38 119.697 65.964 119.073 67.484C118.705 67.548 118.289 67.596 117.809 67.596C117.345 67.596 116.913 67.548 116.497 67.484L114.865 61.964L114.657 60.94L114.449 61.98L112.753 67.484C112.337 67.548 111.921 67.596 111.489 67.596C111.105 67.596 110.641 67.548 110.097 67.484C108.833 64.46 107.857 61.068 107.169 57.308C107.777 57.18 108.401 57.116 109.041 57.116C109.329 57.116 109.585 57.132 109.809 57.164C109.969 58.364 110.193 59.644 110.481 60.988C110.769 62.332 111.105 63.66 111.521 64.94L111.777 63.772L113.473 57.916C113.841 57.852 114.241 57.804 114.689 57.804C115.121 57.804 115.521 57.852 115.905 57.916L117.601 63.772L117.873 64.988C118.673 62.348 119.249 59.74 119.633 57.164L120.273 57.132ZM127.747 57.228L131.555 67.388C130.979 67.516 130.467 67.58 130.019 67.58C129.731 67.58 129.427 67.564 129.139 67.5L128.403 65.468H124.595L123.859 67.5C123.539 67.548 123.187 67.564 122.771 67.564C122.243 67.564 121.827 67.516 121.507 67.388L125.347 57.228C125.667 57.164 126.067 57.132 126.579 57.132C127.027 57.132 127.427 57.164 127.747 57.228ZM125.331 63.484H127.667L126.803 61.116L126.483 60.124L126.195 61.116L125.331 63.484ZM138.642 63.436L141.026 67.388C140.562 67.516 139.89 67.58 139.01 67.58L138.402 67.564L136.29 63.964H136.178L135.01 63.948V67.5C134.706 67.564 134.306 67.596 133.826 67.596C133.362 67.596 132.962 67.564 132.61 67.5V57.388C133.09 57.292 133.65 57.212 134.29 57.148C134.946 57.084 135.538 57.052 136.066 57.052C136.626 57.052 137.17 57.116 137.714 57.212C138.258 57.308 138.722 57.484 139.138 57.74C139.538 57.996 139.858 58.348 140.098 58.764C140.338 59.196 140.466 59.724 140.466 60.348C140.466 60.7 140.402 61.068 140.306 61.468C140.194 61.868 139.986 62.236 139.698 62.588C139.41 62.94 139.058 63.228 138.642 63.436ZM135.01 59.116V61.98L136.274 61.996C136.866 61.996 137.298 61.868 137.586 61.58C137.874 61.292 138.018 60.94 138.018 60.492C138.018 60.06 137.874 59.708 137.57 59.452C137.282 59.196 136.834 59.068 136.258 59.068C135.842 59.068 135.426 59.084 135.01 59.116ZM145.641 57.02C146.553 57.02 147.385 57.148 148.121 57.404C148.857 57.66 149.481 58.012 149.993 58.46C150.489 58.924 150.873 59.484 151.129 60.124C151.385 60.78 151.529 61.484 151.529 62.252C151.529 63.084 151.385 63.836 151.113 64.508C150.825 65.18 150.441 65.756 149.929 66.236C149.417 66.716 148.793 67.068 148.073 67.324C147.337 67.58 146.553 67.692 145.689 67.692C144.473 67.692 143.353 67.628 142.329 67.484V57.276C143.305 57.116 144.409 57.02 145.641 57.02ZM145.817 65.468C146.777 65.468 147.545 65.18 148.089 64.604C148.633 64.028 148.905 63.26 148.905 62.284C148.905 61.356 148.617 60.62 148.073 60.076C147.529 59.532 146.745 59.26 145.753 59.26C145.305 59.26 144.969 59.276 144.729 59.292V65.436L145.817 65.468ZM156.439 67.756C155.927 67.756 155.415 67.708 154.903 67.612C154.391 67.516 153.927 67.372 153.495 67.164C153.063 66.972 152.711 66.748 152.423 66.492C152.471 66.092 152.599 65.724 152.791 65.372C152.983 65.036 153.239 64.78 153.527 64.604C153.879 64.892 154.327 65.116 154.839 65.308C155.367 65.484 155.911 65.58 156.471 65.58C157.015 65.58 157.431 65.484 157.687 65.324C157.943 65.164 158.071 64.94 158.071 64.652C158.071 64.364 157.959 64.14 157.703 63.964C157.447 63.772 156.887 63.58 156.007 63.356C154.855 63.068 154.023 62.684 153.511 62.188C153.015 61.692 152.759 61.036 152.743 60.204C152.743 59.852 152.807 59.484 152.935 59.116C153.063 58.732 153.287 58.364 153.639 58.012C153.991 57.66 154.455 57.388 154.999 57.228C155.543 57.052 156.103 56.972 156.679 56.972C157.287 56.972 157.927 57.052 158.567 57.212C159.207 57.372 159.767 57.644 160.247 58.028C160.231 58.396 160.119 58.764 159.911 59.132C159.719 59.5 159.463 59.772 159.143 59.964C158.823 59.724 158.423 59.532 157.975 59.388C157.527 59.228 157.047 59.164 156.519 59.164C156.071 59.164 155.719 59.228 155.463 59.388C155.207 59.548 155.063 59.74 155.063 59.996C155.063 60.124 155.095 60.252 155.159 60.38C155.223 60.508 155.399 60.62 155.687 60.748C155.975 60.876 156.455 61.02 157.127 61.18C158.311 61.468 159.159 61.884 159.639 62.396C160.135 62.908 160.391 63.548 160.407 64.316C160.407 64.988 160.295 65.564 160.039 66.012C159.783 66.46 159.495 66.796 159.159 67.02C158.823 67.244 158.439 67.436 158.007 67.564C157.559 67.692 157.047 67.756 156.439 67.756Z" fill="#F8D867"/>
<path d="M166.264 60.678C166.3 60.81 166.324 60.954 166.324 61.11C166.324 61.23 166.3 61.362 166.264 61.5H163.51C163.486 61.416 163.474 61.32 163.474 61.206C163.474 61.104 163.492 61.002 163.54 60.894C163.582 60.792 163.648 60.696 163.744 60.612C164.308 60.06 164.668 59.706 164.812 59.55C164.956 59.394 165.052 59.262 165.112 59.16C165.172 59.064 165.202 58.962 165.202 58.854C165.202 58.71 165.16 58.59 165.076 58.5C164.992 58.41 164.866 58.362 164.704 58.362C164.578 58.362 164.458 58.386 164.338 58.434C164.218 58.482 164.092 58.584 163.948 58.734C163.666 58.632 163.468 58.434 163.36 58.14C163.468 58.014 163.612 57.9 163.78 57.798C163.948 57.696 164.122 57.624 164.302 57.582C164.482 57.546 164.638 57.522 164.776 57.522C164.974 57.522 165.154 57.552 165.322 57.6C165.49 57.654 165.64 57.732 165.76 57.834C165.88 57.936 165.976 58.062 166.042 58.218C166.108 58.374 166.138 58.548 166.138 58.74C166.138 58.908 166.108 59.07 166.048 59.226C165.988 59.382 165.886 59.556 165.748 59.736C165.604 59.916 165.316 60.204 164.872 60.6L164.728 60.708L164.968 60.684L166.264 60.678ZM168.288 61.596C168.036 61.596 167.808 61.554 167.616 61.458C167.418 61.362 167.256 61.23 167.13 61.05C167.004 60.87 166.908 60.654 166.848 60.402C166.782 60.15 166.752 59.874 166.752 59.562C166.752 59.25 166.782 58.968 166.848 58.716C166.908 58.464 167.004 58.248 167.136 58.068C167.268 57.894 167.43 57.762 167.622 57.666C167.814 57.57 168.036 57.522 168.288 57.522C168.408 57.522 168.54 57.54 168.684 57.57C168.828 57.606 168.972 57.666 169.104 57.75C169.236 57.84 169.362 57.96 169.47 58.116C169.578 58.272 169.668 58.476 169.734 58.728C169.794 58.98 169.83 59.262 169.83 59.562C169.83 59.874 169.794 60.15 169.734 60.402C169.668 60.654 169.572 60.87 169.44 61.05C169.308 61.23 169.146 61.362 168.954 61.458C168.762 61.554 168.54 61.596 168.288 61.596ZM168.288 60.822C168.39 60.822 168.486 60.792 168.57 60.726C168.654 60.666 168.72 60.54 168.78 60.36C168.84 60.18 168.87 59.916 168.87 59.562C168.87 59.274 168.846 59.04 168.804 58.86C168.756 58.686 168.696 58.554 168.612 58.47C168.528 58.386 168.42 58.338 168.288 58.338C168.108 58.338 167.964 58.434 167.862 58.614C167.76 58.8 167.712 59.118 167.712 59.562C167.712 59.862 167.73 60.102 167.778 60.282C167.82 60.462 167.886 60.6 167.97 60.69C168.054 60.78 168.156 60.822 168.288 60.822ZM173.108 60.678C173.144 60.81 173.168 60.954 173.168 61.11C173.168 61.23 173.144 61.362 173.108 61.5H170.354C170.33 61.416 170.318 61.32 170.318 61.206C170.318 61.104 170.336 61.002 170.384 60.894C170.426 60.792 170.492 60.696 170.588 60.612C171.152 60.06 171.512 59.706 171.656 59.55C171.8 59.394 171.896 59.262 171.956 59.16C172.016 59.064 172.046 58.962 172.046 58.854C172.046 58.71 172.004 58.59 171.92 58.5C171.836 58.41 171.71 58.362 171.548 58.362C171.422 58.362 171.302 58.386 171.182 58.434C171.062 58.482 170.936 58.584 170.792 58.734C170.51 58.632 170.312 58.434 170.204 58.14C170.312 58.014 170.456 57.9 170.624 57.798C170.792 57.696 170.966 57.624 171.146 57.582C171.326 57.546 171.482 57.522 171.62 57.522C171.818 57.522 171.998 57.552 172.166 57.6C172.334 57.654 172.484 57.732 172.604 57.834C172.724 57.936 172.82 58.062 172.886 58.218C172.952 58.374 172.982 58.548 172.982 58.74C172.982 58.908 172.952 59.07 172.892 59.226C172.832 59.382 172.73 59.556 172.592 59.736C172.448 59.916 172.16 60.204 171.716 60.6L171.572 60.708L171.812 60.684L173.108 60.678ZM176.53 60.678C176.566 60.81 176.59 60.954 176.59 61.11C176.59 61.23 176.566 61.362 176.53 61.5H173.776C173.752 61.416 173.74 61.32 173.74 61.206C173.74 61.104 173.758 61.002 173.806 60.894C173.848 60.792 173.914 60.696 174.01 60.612C174.574 60.06 174.934 59.706 175.078 59.55C175.222 59.394 175.318 59.262 175.378 59.16C175.438 59.064 175.468 58.962 175.468 58.854C175.468 58.71 175.426 58.59 175.342 58.5C175.258 58.41 175.132 58.362 174.97 58.362C174.844 58.362 174.724 58.386 174.604 58.434C174.484 58.482 174.358 58.584 174.214 58.734C173.932 58.632 173.734 58.434 173.626 58.14C173.734 58.014 173.878 57.9 174.046 57.798C174.214 57.696 174.388 57.624 174.568 57.582C174.748 57.546 174.904 57.522 175.042 57.522C175.24 57.522 175.42 57.552 175.588 57.6C175.756 57.654 175.906 57.732 176.026 57.834C176.146 57.936 176.242 58.062 176.308 58.218C176.374 58.374 176.404 58.548 176.404 58.74C176.404 58.908 176.374 59.07 176.314 59.226C176.254 59.382 176.152 59.556 176.014 59.736C175.87 59.916 175.582 60.204 175.138 60.6L174.994 60.708L175.234 60.684L176.53 60.678Z" fill="#F8D867"/>
<g clip-path="url(#clip1_28_127)">
<path d="M112.989 84.9854C112.498 83.899 111.597 83.5931 110.561 83.581C108.97 83.5619 107.379 83.5694 105.788 83.5833C105.643 83.5844 105.465 83.6756 105.359 83.7847C104.977 84.1755 104.619 84.5923 104.229 85.0246C103.839 84.6171 103.451 84.2217 103.075 83.8142C102.917 83.6433 102.75 83.5608 102.515 83.5688C102.034 83.5862 101.553 83.5735 101.072 83.5746C100.982 83.5746 100.894 83.5833 100.804 83.5879C100.789 83.6121 100.775 83.6364 100.76 83.6612C101.569 84.4751 102.378 85.2884 103.204 86.1196C102.396 86.9358 101.606 87.7347 100.815 88.5336C100.824 88.5608 100.834 88.5879 100.842 88.615H101.297C101.592 88.615 101.893 88.5833 102.184 88.6219C102.694 88.6901 103.066 88.5007 103.386 88.0961C103.625 87.793 103.916 87.5333 104.144 87.2943C104.485 87.617 104.839 87.9125 105.145 88.256C105.378 88.5175 105.618 88.637 105.965 88.6225C106.6 88.596 107.236 88.615 107.897 88.6422C107.111 89.0185 107.082 89.7377 107.106 90.4887C107.009 90.4939 106.937 90.5008 106.866 90.5008C104.155 90.4991 101.445 90.5055 98.7342 90.4899C97.6634 90.483 97 89.7539 97 88.6445C97 84.8636 97 81.0833 97 77.3024C97 76.2876 97.6245 75.592 98.5948 75.5297C98.8713 75.5124 99.1488 75.502 99.4264 75.502C103.201 75.5003 106.975 75.4997 110.75 75.5014C111.221 75.5014 111.696 75.4933 112.134 75.7219C112.66 75.9961 112.973 76.4608 112.979 77.0496C113.003 79.6944 112.989 82.3399 112.989 84.9848L112.989 84.9854Z" fill="#F8D867"/>
<path d="M108.672 90.4879V88.594C108.95 88.594 109.215 88.5963 109.48 88.594C110.006 88.5882 110.537 88.6171 111.058 88.5645C111.915 88.4779 112.609 88.0976 112.983 87.219C112.983 87.828 113.028 88.4422 112.972 89.0459C112.897 89.846 112.249 90.448 111.439 90.4798C110.527 90.5156 109.612 90.4879 108.671 90.4879H108.672Z" fill="#F8D867"/>
<path d="M108.677 85.1283C109.351 85.1283 110.008 85.1034 110.661 85.1352C111.333 85.1675 111.684 85.6218 111.604 86.2781C111.547 86.7416 111.213 87.0516 110.663 87.0741C110.008 87.1007 109.352 87.0805 108.677 87.0805V85.1288L108.677 85.1283Z" fill="#F8D867"/>
<path d="M107.085 87.985C106.488 87.3033 105.931 86.6683 105.347 86.0022C105.852 85.4965 106.451 84.8968 107.085 84.2613V87.985Z" fill="#F8D867"/>
</g>
<defs>
<clipPath id="clip0_28_127">
<rect width="82" height="95" fill="white" transform="translate(7 14.5)"/>
</clipPath>
<clipPath id="clip1_28_127">
<rect width="16" height="15" fill="white" transform="translate(97 75.5)"/>
</clipPath>
</defs>
</svg>
