<svg width="176" height="180" viewBox="0 0 176 180" fill="none" xmlns="http://www.w3.org/2000/svg">
<g id="selo" clip-path="url(#clip0_28_84)">
<path id="Vector" d="M1.09175e-05 89.1745C-0.023742 41.4298 38.7142 2.67317 86.4635 2.66423C134.079 2.65529 172.698 41.4983 172.71 89.407C172.719 136.973 133.969 175.774 86.6862 175.941C39.697 176.108 0.0801769 138.025 1.09175e-05 89.1745ZM35.0622 88.3073C34.8871 116.288 57.8531 139.533 85.8756 139.741C114.186 139.953 137.47 117.057 137.651 88.8228C137.835 60.2702 115.115 37.0162 86.8317 36.8076C58.2332 36.599 35.2404 59.4715 35.0593 88.3073H35.0622ZM117.452 22.6848C115.507 26.1447 113.557 29.6136 111.57 33.145C112.387 33.6099 113.058 33.9914 113.83 34.4324C115.077 32.2421 116.264 30.156 117.449 28.0699C118.052 30.594 118.482 32.9394 118.64 35.3026C118.756 37.0401 119.477 38.0295 121.208 38.4318C123.162 34.954 125.112 31.4821 127.087 27.9685C126.247 27.5036 125.57 27.1281 124.833 26.7169C123.583 28.9073 122.402 30.9815 121 33.4341C120.614 30.603 120.166 28.2278 120.009 25.8318C119.899 24.1659 119.284 23.1318 117.452 22.6818V22.6848ZM13.3729 83.6434C17.3129 84.2364 21.1846 84.8205 25.1306 85.4136C25.2642 84.454 25.3711 83.694 25.4869 82.8566C23.0047 82.4513 20.6739 82.0728 17.9423 81.6258C20.5047 80.2311 22.6187 78.9527 24.8426 77.9126C26.3509 77.2063 26.8616 76.199 26.5825 74.5123C22.7375 73.9222 18.8598 73.3262 14.8515 72.7093C14.709 73.5944 14.5813 74.3901 14.4418 75.2692C16.9507 75.6656 19.2992 76.0351 22.0664 76.4732C19.516 77.8589 17.3663 79.1285 15.1247 80.2073C13.652 80.9166 13.0344 81.897 13.3759 83.6434H13.3729ZM31.3241 48.3079C34.0231 48.3079 36.5468 48.1709 39.0498 48.3556C40.6798 48.4748 41.5111 47.7864 42.1792 46.344C39.1032 43.8556 36.0183 41.3553 32.8681 38.8073C32.2742 39.5613 31.7962 40.1662 31.2677 40.8338C33.1976 42.4222 35.0236 43.9242 36.9595 45.5185C34.3289 45.5185 31.9506 45.6616 29.602 45.4709C27.8889 45.3308 26.7695 45.7927 26.0985 47.4765C29.1656 49.9619 32.2505 52.4623 35.3918 55.0073C36.0034 54.2474 36.4904 53.6424 37.0248 52.9778C35.0801 51.3834 33.2273 49.8666 31.3271 48.3079H31.3241ZM139.453 140.147C136.633 137.024 133.987 134.097 131.282 131.105C129.78 132.494 128.292 133.733 126.968 135.128C124.658 137.56 124.631 140.874 126.781 143.329C128.913 145.764 132.111 146.202 134.768 144.238C136.386 143.043 137.817 141.592 139.453 140.15V140.147ZM146.036 103.282C145.406 105.336 144.637 107.228 144.26 109.198C143.622 112.536 145.175 115.128 148.147 116.16C150.953 117.134 153.922 116.145 155.249 113.477C156.244 111.481 156.837 109.281 157.636 107.109C153.669 105.801 149.934 104.567 146.036 103.282ZM42.5622 146.363C45.9381 146.345 48.6489 143.583 48.6133 140.2C48.5776 136.773 45.3591 133.599 41.8971 133.573C38.4945 133.546 35.7778 136.353 35.8105 139.858C35.8431 143.315 39.026 146.384 42.5592 146.363H42.5622ZM151.422 86.7934C152.888 88.7722 154.768 89.0344 156.805 88.3788C158.521 87.8245 159.293 86.3791 159.302 84.6983C159.311 82.5318 159.052 80.3652 158.898 78.0646C154.824 78.4162 150.911 78.753 146.843 79.1046C146.909 80.0553 146.968 80.8987 147.024 81.7182H150.308C150.994 83.4705 150.644 84.6536 148.957 85.5656C147.158 86.5371 147.102 87.1242 147.88 89.4695C149.04 88.5934 150.166 87.744 151.416 86.7993L151.422 86.7934ZM21.3331 93.2662C21.0659 92.9235 20.864 92.5659 20.57 92.3096C18.3254 90.3546 14.1686 91.4156 13.7618 94.2705C13.4085 96.75 13.8093 99.3397 13.8806 102.016C18.1561 101.608 22.0664 101.235 26.1222 100.851C25.9946 99.8225 25.8877 98.9762 25.7897 98.1745C24.5338 98.246 23.5183 98.3026 22.5385 98.3593C21.8883 95.8768 21.9091 95.8142 23.7677 94.5417C25.6591 93.2454 25.7392 92.9712 24.8782 90.5245C23.7351 91.4066 22.6098 92.2798 21.3331 93.2662ZM90.4599 25.5874H84.0674V22.8934H89.8305C89.7889 22.047 89.7592 21.3795 89.7206 20.6076H84.0318V17.9911H90.2758V15.896H81.315V27.9536C83.9962 27.9536 86.4635 27.9626 88.9338 27.9536C90.9082 27.9447 90.9439 27.8851 90.4569 25.5904L90.4599 25.5874ZM27.4316 112.774C26.5201 113.111 25.7986 113.376 24.9762 113.68C24.2666 111.812 23.6044 110.065 22.9037 108.221C22.206 108.48 21.5854 108.709 20.8343 108.986C21.4993 110.858 22.1199 112.61 22.785 114.485C21.9299 114.801 21.1727 115.084 20.3681 115.382C19.5754 113.272 18.839 111.308 18.076 109.278C17.2862 109.6 16.6656 109.854 15.9887 110.128C17.0635 113.048 18.0997 115.856 19.1686 118.764C23.0462 117.337 26.7398 115.978 30.5373 114.577C29.4387 111.579 28.3758 108.676 27.2802 105.69C26.4726 106.009 25.8491 106.257 25.1929 106.519C25.9441 108.62 26.6597 110.617 27.4316 112.771V112.774ZM145.552 54.8255C144.418 53.0791 143.408 51.5235 142.366 49.9142C143.159 49.4017 143.806 48.9844 144.521 48.5225C145.76 50.3642 146.935 52.1166 148.135 53.9046C148.818 53.4248 149.37 53.0344 149.982 52.6053C148.248 49.9917 146.591 47.4914 144.887 44.9195C141.469 47.2053 138.168 49.4136 134.798 51.6666C136.588 54.3636 138.274 56.8997 140.026 59.5371C140.721 59.0573 141.27 58.6758 141.879 58.2586C140.635 56.3573 139.453 54.5513 138.233 52.6828C139.023 52.1583 139.709 51.7053 140.43 51.2285C141.567 52.9152 142.627 54.4887 143.702 56.0831C144.406 55.6063 144.928 55.2517 145.552 54.8315V54.8255ZM111.544 147.812C113.592 146.742 115.49 145.749 117.476 144.712C117.924 145.591 118.289 146.313 118.666 147.055C116.888 148.02 115.258 148.905 113.554 149.832C113.946 150.556 114.266 151.146 114.614 151.79C116.38 150.878 118.025 150.026 119.756 149.132C120.187 149.951 120.546 150.631 120.959 151.415C119.002 152.47 117.164 153.459 115.267 154.481C115.688 155.256 116.015 155.849 116.354 156.475C119.118 155 121.76 153.59 124.483 152.136C122.574 148.515 120.733 145.022 118.818 141.389C116.006 142.882 113.286 144.328 110.498 145.809C110.876 146.533 111.169 147.096 111.544 147.809V147.812ZM86.2081 161.538C88.9575 161.604 91.217 159.473 91.2527 156.782C91.2883 154.076 89.1119 151.793 86.4338 151.73C83.8299 151.671 81.5971 153.826 81.5169 156.478C81.4308 159.294 83.4528 161.473 86.2081 161.538ZM134.136 128.125C138.269 128.84 142.253 129.505 146.226 130.235C147.345 130.44 147.494 129.534 147.954 128.965C148.426 128.381 148.554 127.836 148.046 127.115C146.597 125.052 145.237 122.925 143.839 120.826C143.004 119.575 142.167 118.329 141.33 117.08C141.178 117.08 141.03 117.083 140.878 117.086C140.608 118.001 139.827 119.339 140.166 119.751C141.35 121.19 140.804 122.203 139.931 123.369C139.429 124.039 139.061 124.814 138.539 125.467C138.31 125.75 137.746 126.08 137.505 125.979C135.484 125.133 134.955 126.635 134.141 128.125H134.136ZM69.3703 29.9712C66.3923 26.9434 63.5538 23.9781 60.5907 21.144C60.2492 20.8162 59.1506 21.0546 58.5331 21.3258C58.0877 21.5225 57.6008 22.193 57.5711 22.6788C57.4018 25.3997 57.3543 28.1295 57.289 30.8563C57.2593 32.1586 57.2831 33.4639 57.2831 34.7662L57.6512 35.0285C58.3905 34.4354 59.7831 33.8007 59.7474 33.2613C59.6198 31.4076 60.6293 30.8652 62.0218 30.4331C62.5859 30.2573 63.156 30.0576 63.6607 29.7626C64.6286 29.1934 65.4095 29.2828 66.0271 30.2543C66.5348 31.053 67.1732 31.0321 67.9214 30.6209C68.3519 30.3854 68.8181 30.2156 69.3673 29.9712H69.3703ZM33.1026 58.2705C29.0379 58.2705 25.2404 58.2705 21.4459 58.2705C21.2499 58.2705 21.048 58.2854 20.855 58.2586C19.7208 58.0858 19.6644 59.0543 19.3141 59.7099C18.9756 60.3447 18.7945 60.8841 19.4388 61.5517C21.3954 63.5781 23.266 65.6881 25.1751 67.7623C25.9946 68.6533 26.8289 69.5324 27.8354 70.6083C28.0284 69.3626 29.5041 68.5043 28.3342 67.4821C27.1139 66.4123 27.3515 65.4586 27.969 64.2904C28.4055 63.4619 28.6965 62.553 29.1567 61.7424C29.3289 61.4354 29.8396 61.0629 30.1187 61.1166C32.2267 61.5368 32.5147 60.0228 33.1056 58.2735L33.1026 58.2705ZM155.644 70.5725C156.594 67.4374 156.077 64.7911 153.916 62.5917C150.893 59.5222 145.766 60.5801 144.082 64.5556C142.909 67.3301 144.109 71.4099 146.615 73.0699C146.873 73.2397 147.286 73.3768 147.553 73.2934C148.847 72.8881 150.118 72.4023 151.493 71.9106C151.196 71.0732 150.956 70.3997 150.706 69.6993C149.952 69.9586 149.311 70.0957 148.749 70.3877C147.897 70.8258 147.399 70.5219 146.906 69.8096C145.843 68.2689 145.801 66.4987 146.864 65.1099C147.874 63.7927 149.741 63.2623 151.258 63.8702C152.826 64.496 153.847 66.2394 153.69 68.0752C153.643 68.6444 153.518 69.2076 153.42 69.8185C154.177 70.0748 154.818 70.2924 155.644 70.5725ZM50.4511 40.9768C51.0687 41.0245 51.4963 41.0573 51.9238 41.0871C51.7397 41.4656 51.5378 41.8381 51.3745 42.2285C51.2231 42.5921 51.1103 42.9735 50.9826 43.346C51.1281 43.4622 51.2736 43.5755 51.4161 43.6917C52.0604 43.2358 52.8442 42.8901 53.3163 42.297C54.0764 41.3404 53.6162 40.0023 52.4761 39.8801C51.0093 39.7252 51.4488 39.2126 51.9387 38.393C52.5681 37.3381 53.0521 36.1967 53.7053 34.8705C52.5652 34.7096 51.8615 34.6083 51.1905 34.5159C50.181 37.3262 48.5954 38.5152 46.5408 38.1129C44.8573 37.7821 43.5272 36.1281 43.5331 34.3669C43.5391 32.1079 44.8395 31.0828 48.4826 30.5434C48.5123 29.852 48.545 29.1368 48.5747 28.4424C45.083 27.8285 41.5705 30.1232 40.9559 33.3685C40.6412 35.0255 40.8372 36.6467 41.8437 38.0622C43.9904 41.0781 46.8437 41.4358 50.1394 40.1096C50.2819 40.506 50.3947 40.8189 50.4511 40.9709V40.9768ZM54.1655 148.554C54.501 147.883 54.7979 147.421 54.9701 146.918C55.4125 145.612 56.2647 145.52 57.4078 145.922C59.0141 146.485 59.9671 147.57 60.1601 149.26C60.3264 150.702 59.4208 152.279 58.1263 152.949C56.6982 153.691 54.9998 153.465 53.7409 152.276C53.1501 151.716 52.675 151.033 52.1138 150.366C51.4131 150.723 50.7688 151.051 49.8722 151.51C50.7748 152.535 51.4458 153.533 52.3336 154.264C55.7243 157.05 60.5996 156.135 62.2949 152.437C63.3579 150.115 63.1471 147.889 61.52 145.895C59.7326 143.705 57.2979 143.106 54.6109 143.297C54.3407 143.315 53.9933 143.607 53.8567 143.866C53.2421 145.028 52.6898 146.226 52.0693 147.508C52.8116 147.88 53.4143 148.184 54.1596 148.56L54.1655 148.554ZM27.5326 133.149C28.1116 133.984 28.6104 134.705 29.2012 135.557C31.6003 132.044 33.928 128.67 36.2083 125.264C36.6745 124.57 35.3057 122.379 34.504 122.552C30.4809 123.41 26.4726 124.34 22.4316 125.249C23.1818 126.898 24.3111 127.528 25.8194 127.138C28.1353 126.542 30.4572 125.961 33.2036 125.267C31.1549 128.116 29.3734 130.592 27.5355 133.149H27.5326ZM138.735 41.0454C139.29 40.4225 139.765 39.892 140.285 39.3139C137.752 36.9238 135.356 34.6649 132.927 32.3702C132.342 33.005 131.882 33.5056 131.253 34.1881C132.167 35.0642 133.01 35.8659 133.895 36.7122C131.701 39.0636 129.527 41.3911 127.313 43.7603C128.019 44.4278 128.619 44.997 129.287 45.6318C131.552 43.2328 133.753 40.9053 136.009 38.5152C136.909 39.3526 137.734 40.1185 138.732 41.0454H138.735ZM107.161 18.8195C105.938 22.6818 104.735 26.4666 103.497 30.3735C104.409 30.6566 105.19 30.901 106.11 31.1871C107.339 27.304 108.536 23.5222 109.765 19.6301C108.839 19.3411 108.061 19.0997 107.161 18.8166V18.8195ZM146.885 97.5248C150.95 97.9868 154.887 98.4368 158.96 98.8987C159.043 97.9391 159.115 97.1255 159.201 96.1629C155.184 95.7099 151.282 95.2689 147.259 94.8159C147.134 95.7159 147.024 96.5265 146.885 97.5278V97.5248Z" fill="black"/>
<path id="Vector_2" d="M86.3954 39.1381C113.402 39.1738 135.317 61.2447 135.3 88.3877C135.282 115.441 113.209 137.444 86.1549 137.378C59.1359 137.313 37.3338 115.161 37.3991 87.8454C37.4644 61.1106 59.6021 39.1023 86.3954 39.1381ZM40.4127 88.355C40.4543 113.796 61.1371 134.392 86.6269 134.38C111.832 134.368 132.313 113.486 132.298 87.8126C132.286 62.8212 111.467 42.1718 86.3063 42.1957C60.9619 42.2195 40.3682 62.9315 40.4127 88.352V88.355Z" fill="black"/>
<path id="Vector_3" d="M130.804 134.69C132.497 136.556 134.139 138.371 135.816 140.221C134.352 141.684 133.028 143.306 130.739 142.677C129.284 142.277 128.278 141.211 127.93 139.703C127.36 137.223 129.272 136.132 130.807 134.69H130.804Z" fill="black"/>
<path id="Vector_4" d="M147.387 106.623C149.812 107.428 152.078 108.179 154.423 108.96C153.933 110.95 153.628 112.914 151.383 113.564C149.753 114.035 148.331 113.519 147.253 112.271C145.638 110.396 146.867 108.584 147.387 106.626V106.623Z" fill="black"/>
<path id="Vector_5" d="M42.1108 143.702C40.0324 143.696 38.4677 142.123 38.4766 140.048C38.4855 137.921 40.2581 136.168 42.3483 136.216C44.3139 136.261 45.9736 138.007 45.935 139.998C45.8964 142.069 44.201 143.708 42.1108 143.702Z" fill="black"/>
<path id="Vector_6" d="M152.713 81.4142C153.355 81.3487 153.738 81.3159 154.121 81.2682C156.992 80.9106 157.473 81.4411 157.007 84.4152C156.843 85.4523 156.161 86.1377 155.234 86.0156C154.501 85.9172 153.521 85.3659 153.23 84.743C152.797 83.8162 152.874 82.648 152.713 81.4142Z" fill="black"/>
<path id="Vector_7" d="M20.1333 98.6334C18.72 98.7735 17.4641 98.8987 16.0152 99.0417C15.9469 97.8437 15.8073 96.7768 15.8489 95.7189C15.8934 94.5238 16.707 93.9815 17.8263 93.9546C18.9219 93.9308 19.587 94.5715 19.783 95.6116C19.9581 96.5295 20.0057 97.4712 20.1363 98.6334H20.1333Z" fill="black"/>
<path id="Vector_8" d="M140.483 126.578C141.235 125.41 141.834 124.477 142.538 123.386C143.509 124.787 144.361 126.015 145.394 127.505C143.625 127.171 142.164 126.894 140.483 126.575V126.578Z" fill="black"/>
<path id="Vector_9" d="M63.3786 27.4887C62.1583 27.9864 61.1428 28.3977 59.9849 28.8685V24.4371C61.033 25.3788 62.1286 26.3652 63.3786 27.4887Z" fill="black"/>
<path id="Vector_10" d="M25.6385 64.1205C24.5132 63.0417 23.4414 62.0076 22.3042 60.9169H27.0162C26.4847 62.1507 26.0364 63.1878 25.6355 64.1205H25.6385Z" fill="black"/>
<path id="Vector_11" d="M109.483 93.7341C107.871 90.8493 105.365 89.9225 102.339 89.9285C97.8858 89.9374 93.4321 89.8987 88.9814 89.9702C88.343 89.9821 87.6008 90.3844 87.102 90.8255C86.0746 91.7434 85.178 92.8103 84.1833 93.8652C83.8033 93.5136 83.4054 93.2692 83.1798 92.9176C81.039 89.5738 77.8383 89.547 74.5693 90.0685C76.7071 92.2917 78.9072 94.5805 81.2291 97.0003C78.9547 99.3457 76.7724 101.593 74.4862 103.95C76.2439 103.95 77.9541 103.998 79.6614 103.917C80.0859 103.896 80.5491 103.533 80.8965 103.217C81.9535 102.251 82.963 101.232 84.0557 100.168C85.0295 101.137 85.9826 102.198 87.0604 103.107C87.574 103.539 88.3163 103.873 88.9755 103.914C90.748 104.025 92.5295 103.953 94.4802 104.063C92.4582 105.225 92.4078 107.151 92.4879 109.153C91.8852 109.189 91.4547 109.237 91.0212 109.237C83.9458 109.24 76.8704 109.24 69.795 109.237C69.2012 109.237 68.6074 109.216 68.0165 109.162C65.0029 108.888 63.2451 107.195 63.2273 104.162C63.165 93.5851 63.159 83.0056 63.2303 72.4262C63.2511 69.1868 65.1899 67.3599 68.4084 67.351C80.3829 67.3182 92.3573 67.3152 104.329 67.351C107.503 67.3599 109.43 69.1748 109.462 72.2921C109.537 79.4384 109.486 86.5878 109.486 93.7371L109.483 93.7341Z" fill="black"/>
<path id="Vector_12" d="M96.9951 109.079V103.953C98.6756 103.953 100.288 103.953 101.9 103.953C105.009 103.953 107.788 103.306 109.59 100.189C109.474 102.022 109.51 103.884 109.198 105.684C108.86 107.633 107.452 108.897 105.525 109.028C102.74 109.219 99.9316 109.076 96.9981 109.076L96.9951 109.079Z" fill="black"/>
<path id="Vector_13" d="M96.998 99.6199V94.2378C99.0586 94.2378 101.122 94.1126 103.162 94.2795C104.697 94.4046 105.564 95.6265 105.505 97.045C105.448 98.4368 104.626 99.4738 103.1 99.5871C101.101 99.7331 99.0824 99.6229 96.998 99.6229V99.6199Z" fill="black"/>
<path id="Vector_14" d="M92.4194 92.1546V101.95C90.7686 100.073 89.2276 98.3265 87.8589 96.7709C88.999 95.4656 90.5459 93.6983 92.0928 91.9281C92.2027 92.0026 92.3096 92.0772 92.4194 92.1517V92.1546Z" fill="black"/>
</g>
<defs>
<clipPath id="clip0_28_84">
<rect width="176" height="180" fill="white"/>
</clipPath>
</defs>
</svg>
